<svg width="48" height="48" viewBox="0 0 48 48" fill="none" xmlns="http://www.w3.org/2000/svg">
<path d="M23.1337 1.50196C23.5185 0.834769 24.4815 0.834769 24.8663 1.50196L31.4937 12.9931C31.6355 13.2389 31.875 13.4128 32.1525 13.4717L45.1292 16.2239C45.8827 16.3837 46.1802 17.2994 45.6646 17.8716L36.7839 27.7256C36.594 27.9364 36.5025 28.2179 36.5323 28.5001L37.9248 41.6921C38.0057 42.4581 37.2267 43.0241 36.5232 42.7105L24.4071 37.3095C24.148 37.194 23.852 37.194 23.5928 37.3095L11.4768 42.7105C10.7733 43.0241 9.99432 42.4581 10.0752 41.6921L11.4677 28.5001C11.4975 28.2179 11.406 27.9364 11.2161 27.7256L2.3354 17.8716C1.81978 17.2994 2.11733 16.3837 2.87078 16.2239L15.8475 13.4717C16.125 13.4128 16.3645 13.2389 16.5063 12.9931L23.1337 1.50196Z" fill="#FFDA3F"/>
</svg>
